<svg width="76" height="17" viewBox="0 0 76 17" fill="none" xmlns="http://www.w3.org/2000/svg">
<path d="M14.7 14.2C13.4334 12.9333 12.8 11.4 12.8 9.6C12.8 7.73333 13.4334 6.16667 14.7 4.9C15.9667 3.63333 17.5 3 19.3 3C21.1667 3 22.7334 3.63333 24 4.9C25.2667 6.16667 25.9 7.73333 25.9 9.6C25.9 11.4 25.2667 12.9333 24 14.2C22.7334 15.4667 21.1667 16.1 19.3 16.1C17.5 16.1 15.9667 15.4667 14.7 14.2ZM69.2 15.9V10.9L64.9 3.3H67.7L70.5 8.5L73.2 3.3H76L71.7 10.9V15.9H69.2ZM57.4 15.9V3.3H59.9V13.5H64.7V15.9H57.4ZM51.8 15.9L47.3 9.9V15.9H44.9V3.3H47.3V8.8L51.7 3.3H54.5L49.9 9.4L54.7 15.9H51.8ZM0.900024 15.9V3.3H5.90003C6.96669 3.3 7.86669 3.63333 8.60002 4.3C9.33336 4.96667 9.70003 5.8 9.70003 6.8C9.70003 7.86667 9.30002 8.7 8.50002 9.3C9.63336 9.96667 10.2 10.9333 10.2 12.2C10.2 13.2667 9.83336 14.1333 9.10002 14.8C8.30002 15.5333 7.36669 15.9 6.30002 15.9H0.900024ZM30.3 11.2C29.0334 9.93333 28.4 8.4 28.4 6.6C28.4 4.73333 29.0334 3.16667 30.3 1.9C31.5667 0.633335 33.1334 0 35 0C36.8 0 38.3334 0.633335 39.6 1.9C40.8667 3.16667 41.5 4.73333 41.5 6.6C41.5 8.4 40.8667 9.93333 39.6 11.2C38.3334 12.4667 36.8 13.1 35 13.1C33.1334 13.1 31.5667 12.4667 30.3 11.2Z" fill="white"/>
</svg>
